<svg width="64" height="64" viewBox="0 0 64 64" fill="none" xmlns="http://www.w3.org/2000/svg">
  <path d="M32 4C16.536 4 4 16.536 4 32C4 47.464 16.536 60 32 60C47.464 60 60 47.464 60 32C60 16.536 47.464 4 32 4ZM32 10C44.118 10 54 19.882 54 32C54 44.118 44.118 54 32 54C19.882 54 10 44.118 10 32C10 19.882 19.882 10 32 10Z" fill="#333" stroke="#333" stroke-width="2"/>

  <path d="M32 32 L54 32 A22 22 0 0 0 43.142 12.858 Z" fill="#FF0000"/>
  <path d="M32 32 L43.142 12.858 A22 22 0 0 0 20.858 12.858 Z" fill="#00FF00"/>
  <path d="M32 32 L20.858 12.858 A22 22 0 0 0 10 32 Z" fill="#0000FF"/>
  <path d="M32 32 L10 32 A22 22 0 0 0 20.858 51.142 Z" fill="#FFFF00"/>
  <path d="M32 32 L20.858 51.142 A22 22 0 0 0 43.142 51.142 Z" fill="#00FFFF"/>
  <path d="M32 32 L43.142 51.142 A22 22 0 0 0 54 32 Z" fill="#FF00FF"/>

  <circle cx="32" cy="32" r="12" fill="#FFFFFF"/>
  <circle cx="38" cy="26" r="3" fill="#FF0000"/>
  <circle cx="26" cy="26" r="3" fill="#00FF00"/>
  <circle cx="32" cy="38" r="3" fill="#0000FF"/>
</svg>